<svg width="20" height="19" viewBox="0 0 20 19" fill="none" xmlns="http://www.w3.org/2000/svg">
<path fill-rule="evenodd" clip-rule="evenodd" d="M18.806 17.8038H0V19L19.9834 19L19.9835 19V17.8038H19.9834V14.9608L19.8342 14.7945C19.5406 14.4723 19.1798 14.2143 18.7757 14.0376C18.3716 13.861 17.9335 13.7696 17.4903 13.7696C17.0471 13.7696 16.609 13.861 16.2049 14.0376C15.8008 14.2143 15.4401 14.4723 15.1465 14.7945C14.9687 14.9854 14.7516 15.138 14.5093 15.2425C14.267 15.3469 14.0048 15.4009 13.7396 15.4009C13.4744 15.4009 13.2122 15.3469 12.9699 15.2425C12.7276 15.138 12.5105 14.9854 12.3327 14.7945C12.0397 14.4724 11.6794 14.2145 11.2757 14.0379C10.8721 13.8612 10.4344 13.7699 9.99167 13.7699C9.5489 13.7699 9.11118 13.8612 8.70756 14.0379C8.30395 14.2145 7.94365 14.4724 7.65056 14.7945C7.4745 14.9881 7.2574 15.1425 7.01409 15.2472C6.77079 15.3518 6.50704 15.4041 6.24094 15.4006C5.97561 15.4044 5.71261 15.3522 5.47016 15.2475C5.2277 15.1428 5.0116 14.9883 4.83686 14.7945C4.54485 14.4705 4.18436 14.2112 3.77992 14.0344C3.37549 13.8577 2.93659 13.7674 2.49302 13.7699C2.05944 13.7684 1.63026 13.8543 1.23263 14.022V11.8763C1.57958 11.5767 2.02858 11.4124 2.49302 11.415C2.75808 11.413 3.02051 11.466 3.26269 11.5706C3.50487 11.6751 3.72119 11.8288 3.8971 12.0212C4.19069 12.3433 4.55149 12.6013 4.95555 12.778C5.35962 12.9547 5.79774 13.0461 6.24094 13.0461C6.68414 13.0461 7.12229 12.9547 7.52636 12.778C7.93043 12.6013 8.29119 12.3433 8.58478 12.0212C8.76255 11.8303 8.97963 11.6777 9.22196 11.5732C9.46429 11.4687 9.72651 11.4148 9.99167 11.4148C10.2568 11.4148 10.519 11.4687 10.7614 11.5732C11.0037 11.6777 11.2208 11.8303 11.3985 12.0212C11.6916 12.3432 12.0519 12.6011 12.4555 12.7778C12.8591 12.9544 13.2968 13.0458 13.7396 13.0458C14.1824 13.0458 14.6201 12.9544 15.0237 12.7778C15.4273 12.6011 15.7876 12.3432 16.0807 12.0212C16.2584 11.8303 16.4755 11.6777 16.7178 11.5732C16.9602 11.4687 17.2224 11.4148 17.4876 11.4148C17.7527 11.4148 18.0149 11.4687 18.2573 11.5732C18.4996 11.6777 18.7166 11.8303 18.8944 12.0212L20 11.6296V7.87466L19.8507 7.703C19.5562 7.38235 19.1951 7.12576 18.7912 6.95007C18.3872 6.77437 17.9496 6.68354 17.5069 6.68354C17.0642 6.68354 16.6266 6.77437 16.2226 6.95007C15.8187 7.12576 15.4576 7.38235 15.163 7.703C14.9853 7.89392 14.7682 8.04653 14.5259 8.15099C14.2836 8.25544 14.0214 8.3094 13.7562 8.3094C13.491 8.3094 13.2288 8.25544 12.9865 8.15099C12.7442 8.04653 12.5271 7.89392 12.3493 7.703C12.0553 7.38248 11.6947 7.12596 11.2912 6.95031C10.8877 6.77466 10.4505 6.68385 10.0082 6.68385C9.56601 6.68385 9.1288 6.77466 8.72531 6.95031C8.32183 7.12596 7.96121 7.38248 7.66716 7.703C7.4911 7.89665 7.27396 8.05108 7.03066 8.1557C6.78735 8.26032 6.52364 8.31267 6.25754 8.30916C5.99221 8.31296 5.72918 8.26071 5.48672 8.15604C5.24427 8.05138 5.02817 7.89679 4.85342 7.703C4.56114 7.37969 4.20048 7.12129 3.79602 6.94542C3.39155 6.76954 2.95279 6.68031 2.50958 6.6838C2.07666 6.68322 1.64805 6.76713 1.24923 6.93055V5.10136L10.0055 1.29277L19.1266 5.25693L19.6352 4.18409L10.0055 0L0.0164757 4.33965V8.09459L1.12206 8.48617C1.29813 8.29252 1.51526 8.1381 1.75857 8.03348C2.00187 7.92886 2.26562 7.8765 2.53172 7.88001C2.79705 7.8762 3.06005 7.92845 3.3025 8.03312C3.54496 8.13779 3.76106 8.29237 3.9358 8.48617C4.22939 8.80834 4.59018 9.06631 4.99425 9.243C5.39832 9.41968 5.83644 9.51106 6.27964 9.51106C6.72284 9.51106 7.16099 9.41968 7.56506 9.243C7.96913 9.06631 8.32989 8.80834 8.62348 8.48617C8.80125 8.29525 9.01833 8.14265 9.26066 8.0382C9.50299 7.93374 9.76521 7.87976 10.0304 7.87976C10.2955 7.87976 10.5577 7.93374 10.8 8.0382C11.0424 8.14265 11.2595 8.29525 11.4372 8.48617C11.7303 8.80822 12.0906 9.06612 12.4942 9.24277C12.8978 9.41941 13.3355 9.51076 13.7783 9.51076C14.2211 9.51076 14.6588 9.41941 15.0624 9.24277C15.466 9.06612 15.8263 8.80822 16.1194 8.48617C16.2954 8.29252 16.5126 8.1381 16.7559 8.03348C16.9992 7.92886 17.2629 7.8765 17.529 7.88001C17.9909 7.87673 18.4378 8.03911 18.7838 8.33597V10.4817C18.1767 10.2259 17.5017 10.1629 16.8554 10.3016C16.2091 10.4403 15.6245 10.7737 15.1851 11.2541C15.0074 11.445 14.7903 11.5976 14.548 11.7021C14.3057 11.8065 14.0435 11.8605 13.7783 11.8605C13.5131 11.8605 13.2509 11.8065 13.0086 11.7021C12.7663 11.5976 12.5492 11.445 12.3714 11.2541C12.0784 10.932 11.7181 10.6742 11.3144 10.4975C10.9108 10.3209 10.4731 10.2295 10.0304 10.2295C9.5876 10.2295 9.14988 10.3209 8.74626 10.4975C8.34265 10.6742 7.98234 10.932 7.68926 11.2541C7.51227 11.4466 7.29497 11.6003 7.05188 11.7049C6.80879 11.8094 6.54552 11.8624 6.27964 11.8603C6.01447 11.863 5.75182 11.8103 5.50953 11.7057C5.26724 11.6011 5.05101 11.4471 4.87556 11.2541C4.58197 10.9319 4.22117 10.674 3.8171 10.4973C3.41303 10.3206 2.97491 10.2292 2.53172 10.2292C2.08852 10.2292 1.65036 10.3206 1.24629 10.4973C0.842225 10.674 0.481432 10.9319 0.18784 11.2541L0.038609 11.4204V15.1753L1.1442 15.5669C1.32197 15.376 1.53901 15.2234 1.78134 15.1189C2.02367 15.0145 2.28589 14.9605 2.55105 14.9605C2.81621 14.9605 3.07843 15.0145 3.32076 15.1189C3.56309 15.2234 3.78013 15.376 3.9579 15.5669C4.25245 15.8876 4.61356 16.1442 5.0175 16.3198C5.42144 16.4955 5.85911 16.5864 6.30178 16.5864C6.74444 16.5864 7.18208 16.4955 7.58602 16.3198C7.98996 16.1442 8.35107 15.8876 8.64562 15.5669C8.82339 15.376 9.04043 15.2234 9.28276 15.1189C9.52509 15.0145 9.78731 14.9605 10.0525 14.9605C10.3176 14.9605 10.5798 15.0145 10.8222 15.1189C11.0645 15.2234 11.2816 15.376 11.4593 15.5669C11.7534 15.8874 12.114 16.144 12.5175 16.3196C12.921 16.4953 13.3582 16.5861 13.8004 16.5861C14.2426 16.5861 14.6799 16.4953 15.0834 16.3196C15.4868 16.144 15.8475 15.8874 16.1415 15.5669C16.4771 15.2086 16.944 14.9923 17.4421 14.9642C17.9403 14.9361 18.4299 15.0986 18.806 15.4167V17.8038Z" fill="white"/>
</svg>
