<svg width="187" height="34" viewBox="0 0 187 34" fill="none" xmlns="http://www.w3.org/2000/svg">
<path d="M183 0H4C1.79086 0 0 1.79086 0 4V30C0 32.2091 1.79086 34 4 34H183C185.209 34 187 32.2091 187 30V4C187 1.79086 185.209 0 183 0Z" fill="#00A972"/>
<path d="M52.02 22V11.5H55.605C56.835 11.5 57.845 11.72 58.635 12.16C59.435 12.59 60.025 13.2 60.405 13.99C60.795 14.77 60.99 15.69 60.99 16.75C60.99 17.81 60.795 18.735 60.405 19.525C60.025 20.305 59.435 20.915 58.635 21.355C57.845 21.785 56.835 22 55.605 22H52.02ZM53.94 20.35H55.515C56.395 20.35 57.09 20.21 57.6 19.93C58.11 19.64 58.475 19.23 58.695 18.7C58.915 18.16 59.025 17.51 59.025 16.75C59.025 16 58.915 15.355 58.695 14.815C58.475 14.275 58.11 13.86 57.6 13.57C57.09 13.28 56.395 13.135 55.515 13.135H53.94V20.35ZM65.8791 22.18C65.1291 22.18 64.4641 22.02 63.8841 21.7C63.3041 21.38 62.8491 20.93 62.5191 20.35C62.1891 19.77 62.0241 19.1 62.0241 18.34C62.0241 17.57 62.1841 16.885 62.5041 16.285C62.8341 15.685 63.2841 15.22 63.8541 14.89C64.4341 14.55 65.1141 14.38 65.8941 14.38C66.6241 14.38 67.2691 14.54 67.8291 14.86C68.3891 15.18 68.8241 15.62 69.1341 16.18C69.4541 16.73 69.6141 17.345 69.6141 18.025C69.6141 18.135 69.6091 18.25 69.5991 18.37C69.5991 18.49 69.5941 18.615 69.5841 18.745H63.9291C63.9691 19.325 64.1691 19.78 64.5291 20.11C64.8991 20.44 65.3441 20.605 65.8641 20.605C66.2541 20.605 66.5791 20.52 66.8391 20.35C67.1091 20.17 67.3091 19.94 67.4391 19.66H69.3891C69.2491 20.13 69.0141 20.56 68.6841 20.95C68.3641 21.33 67.9641 21.63 67.4841 21.85C67.0141 22.07 66.4791 22.18 65.8791 22.18ZM65.8941 15.94C65.4241 15.94 65.0091 16.075 64.6491 16.345C64.2891 16.605 64.0591 17.005 63.9591 17.545H67.6641C67.6341 17.055 67.4541 16.665 67.1241 16.375C66.7941 16.085 66.3841 15.94 65.8941 15.94ZM70.8539 25.3V14.56H72.5639L72.7739 15.625C73.0139 15.295 73.3289 15.005 73.7189 14.755C74.1189 14.505 74.6339 14.38 75.2639 14.38C75.9639 14.38 76.5889 14.55 77.1389 14.89C77.6889 15.23 78.1239 15.695 78.4439 16.285C78.7639 16.875 78.9239 17.545 78.9239 18.295C78.9239 19.045 78.7639 19.715 78.4439 20.305C78.1239 20.885 77.6889 21.345 77.1389 21.685C76.5889 22.015 75.9639 22.18 75.2639 22.18C74.7039 22.18 74.2139 22.075 73.7939 21.865C73.3739 21.655 73.0339 21.36 72.7739 20.98V25.3H70.8539ZM74.8589 20.5C75.4689 20.5 75.9739 20.295 76.3739 19.885C76.7739 19.475 76.9739 18.945 76.9739 18.295C76.9739 17.645 76.7739 17.11 76.3739 16.69C75.9739 16.27 75.4689 16.06 74.8589 16.06C74.2389 16.06 73.7289 16.27 73.3289 16.69C72.9389 17.1 72.7439 17.63 72.7439 18.28C72.7439 18.93 72.9389 19.465 73.3289 19.885C73.7289 20.295 74.2389 20.5 74.8589 20.5ZM80.2641 22V11.2H82.1841V22H80.2641ZM87.3409 22.18C86.6209 22.18 85.9709 22.015 85.3909 21.685C84.8209 21.355 84.3659 20.9 84.0259 20.32C83.6959 19.73 83.5309 19.05 83.5309 18.28C83.5309 17.51 83.7009 16.835 84.0409 16.255C84.3809 15.665 84.8359 15.205 85.4059 14.875C85.9859 14.545 86.6359 14.38 87.3559 14.38C88.0659 14.38 88.7059 14.545 89.2759 14.875C89.8559 15.205 90.3109 15.665 90.6409 16.255C90.9809 16.835 91.1509 17.51 91.1509 18.28C91.1509 19.05 90.9809 19.73 90.6409 20.32C90.3109 20.9 89.8559 21.355 89.2759 21.685C88.6959 22.015 88.0509 22.18 87.3409 22.18ZM87.3409 20.515C87.8409 20.515 88.2759 20.33 88.6459 19.96C89.0159 19.58 89.2009 19.02 89.2009 18.28C89.2009 17.54 89.0159 16.985 88.6459 16.615C88.2759 16.235 87.8459 16.045 87.3559 16.045C86.8459 16.045 86.4059 16.235 86.0359 16.615C85.6759 16.985 85.4959 17.54 85.4959 18.28C85.4959 19.02 85.6759 19.58 86.0359 19.96C86.4059 20.33 86.8409 20.515 87.3409 20.515ZM92.7488 25.3L94.4738 21.505H94.0238L91.1288 14.56H93.2138L95.2988 19.795L97.4738 14.56H99.5138L94.7888 25.3H92.7488ZM103.728 22V11.5H104.988V20.995H109.878V22H103.728ZM113.634 22.18C113.014 22.18 112.499 22.075 112.089 21.865C111.679 21.655 111.374 21.375 111.174 21.025C110.974 20.675 110.874 20.295 110.874 19.885C110.874 19.125 111.164 18.54 111.744 18.13C112.324 17.72 113.114 17.515 114.114 17.515H116.124V17.425C116.124 16.775 115.954 16.285 115.614 15.955C115.274 15.615 114.819 15.445 114.249 15.445C113.759 15.445 113.334 15.57 112.974 15.82C112.624 16.06 112.404 16.415 112.314 16.885H111.024C111.074 16.345 111.254 15.89 111.564 15.52C111.884 15.15 112.279 14.87 112.749 14.68C113.219 14.48 113.719 14.38 114.249 14.38C115.289 14.38 116.069 14.66 116.589 15.22C117.119 15.77 117.384 16.505 117.384 17.425V22H116.259L116.184 20.665C115.974 21.085 115.664 21.445 115.254 21.745C114.854 22.035 114.314 22.18 113.634 22.18ZM113.829 21.115C114.309 21.115 114.719 20.99 115.059 20.74C115.409 20.49 115.674 20.165 115.854 19.765C116.034 19.365 116.124 18.945 116.124 18.505V18.49H114.219C113.479 18.49 112.954 18.62 112.644 18.88C112.344 19.13 112.194 19.445 112.194 19.825C112.194 20.215 112.334 20.53 112.614 20.77C112.904 21 113.309 21.115 113.829 21.115ZM118.899 22V11.2H120.159V17.695L123.204 14.56H124.749L121.449 17.92L125.169 22H123.564L120.159 18.145V22H118.899ZM128.886 22.18C128.176 22.18 127.546 22.02 126.996 21.7C126.446 21.37 126.011 20.915 125.691 20.335C125.381 19.755 125.226 19.07 125.226 18.28C125.226 17.5 125.381 16.82 125.691 16.24C126.001 15.65 126.431 15.195 126.981 14.875C127.541 14.545 128.186 14.38 128.916 14.38C129.636 14.38 130.256 14.545 130.776 14.875C131.306 15.195 131.711 15.62 131.991 16.15C132.271 16.68 132.411 17.25 132.411 17.86C132.411 17.97 132.406 18.08 132.396 18.19C132.396 18.3 132.396 18.425 132.396 18.565H126.471C126.501 19.135 126.631 19.61 126.861 19.99C127.101 20.36 127.396 20.64 127.746 20.83C128.106 21.02 128.486 21.115 128.886 21.115C129.406 21.115 129.841 20.995 130.191 20.755C130.541 20.515 130.796 20.19 130.956 19.78H132.201C132.001 20.47 131.616 21.045 131.046 21.505C130.486 21.955 129.766 22.18 128.886 22.18ZM128.886 15.445C128.286 15.445 127.751 15.63 127.281 16C126.821 16.36 126.556 16.89 126.486 17.59H131.166C131.136 16.92 130.906 16.395 130.476 16.015C130.046 15.635 129.516 15.445 128.886 15.445ZM133.706 22V11.2H134.966V15.835C135.216 15.375 135.571 15.02 136.031 14.77C136.491 14.51 136.991 14.38 137.531 14.38C138.391 14.38 139.081 14.65 139.601 15.19C140.121 15.72 140.381 16.54 140.381 17.65V22H139.136V17.785C139.136 16.235 138.511 15.46 137.261 15.46C136.611 15.46 136.066 15.695 135.626 16.165C135.186 16.625 134.966 17.285 134.966 18.145V22H133.706ZM145.305 22.18C144.605 22.18 143.975 22.02 143.415 21.7C142.855 21.38 142.41 20.93 142.08 20.35C141.76 19.76 141.6 19.07 141.6 18.28C141.6 17.49 141.765 16.805 142.095 16.225C142.425 15.635 142.87 15.18 143.43 14.86C144 14.54 144.635 14.38 145.335 14.38C146.035 14.38 146.665 14.54 147.225 14.86C147.785 15.18 148.225 15.635 148.545 16.225C148.875 16.805 149.04 17.49 149.04 18.28C149.04 19.07 148.875 19.76 148.545 20.35C148.215 20.93 147.765 21.38 147.195 21.7C146.635 22.02 146.005 22.18 145.305 22.18ZM145.305 21.1C145.735 21.1 146.135 20.995 146.505 20.785C146.875 20.575 147.175 20.26 147.405 19.84C147.635 19.42 147.75 18.9 147.75 18.28C147.75 17.66 147.635 17.14 147.405 16.72C147.185 16.3 146.89 15.985 146.52 15.775C146.15 15.565 145.755 15.46 145.335 15.46C144.905 15.46 144.505 15.565 144.135 15.775C143.765 15.985 143.465 16.3 143.235 16.72C143.005 17.14 142.89 17.66 142.89 18.28C142.89 18.9 143.005 19.42 143.235 19.84C143.465 20.26 143.76 20.575 144.12 20.785C144.49 20.995 144.885 21.1 145.305 21.1ZM153.132 22.18C152.252 22.18 151.552 21.915 151.032 21.385C150.512 20.845 150.252 20.02 150.252 18.91V14.56H151.512V18.775C151.512 20.325 152.147 21.1 153.417 21.1C154.067 21.1 154.602 20.87 155.022 20.41C155.452 19.94 155.667 19.275 155.667 18.415V14.56H156.927V22H155.787L155.697 20.665C155.467 21.135 155.122 21.505 154.662 21.775C154.212 22.045 153.702 22.18 153.132 22.18ZM161.476 22.18C160.586 22.18 159.846 21.955 159.256 21.505C158.666 21.055 158.321 20.445 158.221 19.675H159.511C159.591 20.065 159.796 20.405 160.126 20.695C160.466 20.975 160.921 21.115 161.491 21.115C162.021 21.115 162.411 21.005 162.661 20.785C162.911 20.555 163.036 20.285 163.036 19.975C163.036 19.525 162.871 19.225 162.541 19.075C162.221 18.925 161.766 18.79 161.176 18.67C160.776 18.59 160.376 18.475 159.976 18.325C159.576 18.175 159.241 17.965 158.971 17.695C158.701 17.415 158.566 17.05 158.566 16.6C158.566 15.95 158.806 15.42 159.286 15.01C159.776 14.59 160.436 14.38 161.266 14.38C162.056 14.38 162.701 14.58 163.201 14.98C163.711 15.37 164.006 15.93 164.086 16.66H162.841C162.791 16.28 162.626 15.985 162.346 15.775C162.076 15.555 161.711 15.445 161.251 15.445C160.801 15.445 160.451 15.54 160.201 15.73C159.961 15.92 159.841 16.17 159.841 16.48C159.841 16.78 159.996 17.015 160.306 17.185C160.626 17.355 161.056 17.5 161.596 17.62C162.056 17.72 162.491 17.845 162.901 17.995C163.321 18.135 163.661 18.35 163.921 18.64C164.191 18.92 164.326 19.33 164.326 19.87C164.336 20.54 164.081 21.095 163.561 21.535C163.051 21.965 162.356 22.18 161.476 22.18ZM169.096 22.18C168.386 22.18 167.756 22.02 167.206 21.7C166.656 21.37 166.221 20.915 165.901 20.335C165.591 19.755 165.436 19.07 165.436 18.28C165.436 17.5 165.591 16.82 165.901 16.24C166.211 15.65 166.641 15.195 167.191 14.875C167.751 14.545 168.396 14.38 169.126 14.38C169.846 14.38 170.466 14.545 170.986 14.875C171.516 15.195 171.921 15.62 172.201 16.15C172.481 16.68 172.621 17.25 172.621 17.86C172.621 17.97 172.616 18.08 172.606 18.19C172.606 18.3 172.606 18.425 172.606 18.565H166.681C166.711 19.135 166.841 19.61 167.071 19.99C167.311 20.36 167.606 20.64 167.956 20.83C168.316 21.02 168.696 21.115 169.096 21.115C169.616 21.115 170.051 20.995 170.401 20.755C170.751 20.515 171.006 20.19 171.166 19.78H172.411C172.211 20.47 171.826 21.045 171.256 21.505C170.696 21.955 169.976 22.18 169.096 22.18ZM169.096 15.445C168.496 15.445 167.961 15.63 167.491 16C167.031 16.36 166.766 16.89 166.696 17.59H171.376C171.346 16.92 171.116 16.395 170.686 16.015C170.256 15.635 169.726 15.445 169.096 15.445Z" fill="white"/>
<path fill-rule="evenodd" clip-rule="evenodd" d="M35.806 24.8038H17V26L36.9834 26L36.9835 26V24.8038H36.9834V21.9608L36.8342 21.7945C36.5406 21.4723 36.1798 21.2143 35.7757 21.0376C35.3716 20.861 34.9335 20.7696 34.4903 20.7696C34.0471 20.7696 33.609 20.861 33.2049 21.0376C32.8008 21.2143 32.4401 21.4723 32.1465 21.7945C31.9687 21.9854 31.7516 22.138 31.5093 22.2425C31.267 22.3469 31.0048 22.4009 30.7396 22.4009C30.4744 22.4009 30.2122 22.3469 29.9699 22.2425C29.7276 22.138 29.5105 21.9854 29.3327 21.7945C29.0397 21.4724 28.6794 21.2145 28.2757 21.0379C27.8721 20.8612 27.4344 20.7699 26.9917 20.7699C26.5489 20.7699 26.1112 20.8612 25.7076 21.0379C25.3039 21.2145 24.9436 21.4724 24.6506 21.7945C24.4745 21.9881 24.2574 22.1425 24.0141 22.2472C23.7708 22.3518 23.507 22.4041 23.2409 22.4006C22.9756 22.4044 22.7126 22.3522 22.4702 22.2475C22.2277 22.1428 22.0116 21.9883 21.8369 21.7945C21.5448 21.4705 21.1844 21.2112 20.7799 21.0344C20.3755 20.8577 19.9366 20.7674 19.493 20.7699C19.0594 20.7684 18.6303 20.8543 18.2326 21.022V18.8763C18.5796 18.5767 19.0286 18.4124 19.493 18.415C19.7581 18.413 20.0205 18.466 20.2627 18.5706C20.5049 18.6751 20.7212 18.8288 20.8971 19.0212C21.1907 19.3433 21.5515 19.6013 21.9556 19.778C22.3596 19.9547 22.7977 20.0461 23.2409 20.0461C23.6841 20.0461 24.1223 19.9547 24.5264 19.778C24.9304 19.6013 25.2912 19.3433 25.5848 19.0212C25.7626 18.8303 25.9796 18.6777 26.222 18.5732C26.4643 18.4687 26.7265 18.4148 26.9917 18.4148C27.2568 18.4148 27.519 18.4687 27.7614 18.5732C28.0037 18.6777 28.2208 18.8303 28.3985 19.0212C28.6916 19.3432 29.0519 19.6011 29.4555 19.7778C29.8591 19.9544 30.2968 20.0458 30.7396 20.0458C31.1824 20.0458 31.6201 19.9544 32.0237 19.7778C32.4273 19.6011 32.7876 19.3432 33.0807 19.0212C33.2584 18.8303 33.4755 18.6777 33.7178 18.5732C33.9602 18.4687 34.2224 18.4148 34.4876 18.4148C34.7527 18.4148 35.0149 18.4687 35.2573 18.5732C35.4996 18.6777 35.7166 18.8303 35.8944 19.0212L37 18.6296V14.8747L36.8507 14.703C36.5562 14.3823 36.1951 14.1258 35.7912 13.9501C35.3872 13.7744 34.9496 13.6835 34.5069 13.6835C34.0642 13.6835 33.6266 13.7744 33.2226 13.9501C32.8187 14.1258 32.4576 14.3823 32.163 14.703C31.9853 14.8939 31.7682 15.0465 31.5259 15.151C31.2836 15.2554 31.0214 15.3094 30.7562 15.3094C30.491 15.3094 30.2288 15.2554 29.9865 15.151C29.7442 15.0465 29.5271 14.8939 29.3493 14.703C29.0553 14.3825 28.6947 14.126 28.2912 13.9503C27.8877 13.7747 27.4505 13.6839 27.0082 13.6839C26.566 13.6839 26.1288 13.7747 25.7253 13.9503C25.3218 14.126 24.9612 14.3825 24.6672 14.703C24.4911 14.8966 24.274 15.0511 24.0307 15.1557C23.7874 15.2603 23.5236 15.3127 23.2575 15.3092C22.9922 15.313 22.7292 15.2607 22.4867 15.156C22.2443 15.0514 22.0282 14.8968 21.8534 14.703C21.5611 14.3797 21.2005 14.1213 20.796 13.9454C20.3916 13.7695 19.9528 13.6803 19.5096 13.6838C19.0767 13.6832 18.6481 13.7671 18.2492 13.9306V12.1014L27.0055 8.29277L36.1266 12.2569L36.6352 11.1841L27.0055 7L17.0165 11.3397V15.0946L18.1221 15.4862C18.2981 15.2925 18.5153 15.1381 18.7586 15.0335C19.0019 14.9289 19.2656 14.8765 19.5317 14.88C19.7971 14.8762 20.06 14.9285 20.3025 15.0331C20.545 15.1378 20.7611 15.2924 20.9358 15.4862C21.2294 15.8083 21.5902 16.0663 21.9943 16.243C22.3983 16.4197 22.8364 16.5111 23.2796 16.5111C23.7228 16.5111 24.161 16.4197 24.5651 16.243C24.9691 16.0663 25.3299 15.8083 25.6235 15.4862C25.8013 15.2952 26.0183 15.1426 26.2607 15.0382C26.503 14.9337 26.7652 14.8798 27.0304 14.8798C27.2955 14.8798 27.5577 14.9337 27.8 15.0382C28.0424 15.1426 28.2595 15.2952 28.4372 15.4862C28.7303 15.8082 29.0906 16.0661 29.4942 16.2428C29.8978 16.4194 30.3355 16.5108 30.7783 16.5108C31.2211 16.5108 31.6588 16.4194 32.0624 16.2428C32.466 16.0661 32.8263 15.8082 33.1194 15.4862C33.2954 15.2925 33.5126 15.1381 33.7559 15.0335C33.9992 14.9289 34.2629 14.8765 34.529 14.88C34.9909 14.8767 35.4378 15.0391 35.7838 15.336V17.4817C35.1767 17.2259 34.5017 17.1629 33.8554 17.3016C33.2091 17.4403 32.6245 17.7737 32.1851 18.2541C32.0074 18.445 31.7903 18.5976 31.548 18.7021C31.3057 18.8065 31.0435 18.8605 30.7783 18.8605C30.5131 18.8605 30.2509 18.8065 30.0086 18.7021C29.7663 18.5976 29.5492 18.445 29.3714 18.2541C29.0784 17.932 28.7181 17.6742 28.3144 17.4975C27.9108 17.3209 27.4731 17.2295 27.0304 17.2295C26.5876 17.2295 26.1499 17.3209 25.7463 17.4975C25.3426 17.6742 24.9823 17.932 24.6893 18.2541C24.5123 18.4466 24.295 18.6003 24.0519 18.7049C23.8088 18.8094 23.5455 18.8624 23.2796 18.8603C23.0145 18.863 22.7518 18.8103 22.5095 18.7057C22.2672 18.6011 22.051 18.4471 21.8756 18.2541C21.582 17.9319 21.2212 17.674 20.8171 17.4973C20.413 17.3206 19.9749 17.2292 19.5317 17.2292C19.0885 17.2292 18.6504 17.3206 18.2463 17.4973C17.8422 17.674 17.4814 17.9319 17.1878 18.2541L17.0386 18.4204V22.1753L18.1442 22.5669C18.322 22.376 18.539 22.2234 18.7813 22.1189C19.0237 22.0145 19.2859 21.9605 19.551 21.9605C19.8162 21.9605 20.0784 22.0145 20.3208 22.1189C20.5631 22.2234 20.7801 22.376 20.9579 22.5669C21.2525 22.8876 21.6136 23.1442 22.0175 23.3198C22.4214 23.4955 22.8591 23.5864 23.3018 23.5864C23.7444 23.5864 24.1821 23.4955 24.586 23.3198C24.99 23.1442 25.3511 22.8876 25.6456 22.5669C25.8234 22.376 26.0404 22.2234 26.2828 22.1189C26.5251 22.0145 26.7873 21.9605 27.0525 21.9605C27.3176 21.9605 27.5798 22.0145 27.8222 22.1189C28.0645 22.2234 28.2816 22.376 28.4593 22.5669C28.7534 22.8874 29.114 23.144 29.5175 23.3196C29.921 23.4953 30.3582 23.5861 30.8004 23.5861C31.2426 23.5861 31.6799 23.4953 32.0834 23.3196C32.4868 23.144 32.8475 22.8874 33.1415 22.5669C33.4771 22.2086 33.944 21.9923 34.4421 21.9642C34.9403 21.9361 35.4299 22.0986 35.806 22.4167V24.8038Z" fill="white"/>
</svg>
